# AST/ASF file generated using VICON BodyLanguage
# -----------------------------------------------
:version 1.10
:name VICON
:units
  mass 1.0
  length 0.45
  angle deg
:documentation
   .ast/.asf automatically generated from VICON data using
   VICON BodyBuilder and BodyLanguage model FoxedUp or BRILLIANT.MOD
:root
   order TX TY TZ RX RY RZ
   axis XYZ
   position 0 0 0  
   orientation 0 0 0 
:bonedata
  begin
     id 1 
     name lhipjoint
     direction 0.627412 -0.730575 0.26947 
     length 2.49821 
     axis 0 0 0  XYZ
  end
  begin
     id 2 
     name lfemur
     direction 0.34202 -0.939693 0  
     length 6.89165  
     axis 0 0 20  XYZ
    dof rx ry rz
    limits (-160.0 20.0)
           (-70.0 70.0)
           (-60.0 70.0)
  end
  begin
     id 3 
     name ltibia
     direction 0.34202 -0.939693 0   
     length 7.91287   
     axis 0 0 20   XYZ
    dof rx
    limits (-10.0 170.0)
  end
  begin
     id 4 
     name lfoot
     direction 0.0941675 -0.258723 0.96135   
     length 2.16919   
     axis -90 7.62852e-016 20   XYZ
    dof rx rz
    limits (-45.0 90.0)
           (-70.0 20.0)
  end
  begin
     id 5 
     name ltoes
     direction 1.5347e-011 -4.21941e-011 1   
     length 1.08535   
     axis -90 7.62852e-016 20   XYZ
    dof rx
    limits (-90.0 20.0)
  end
  begin
     id 6 
     name rhipjoint
     direction -0.614241 -0.740361 0.27308   
     length 2.46519  
     axis 0 0 0  XYZ 
  end
  begin
     id 7 
     name rfemur
     direction -0.34202 -0.939693 0   
     length 7.27512   
     axis 0 0 -20   XYZ
    dof rx ry rz
    limits (-160.0 20.0)
           (-70.0 70.0)
           (-70.0 60.0)
  end
  begin
     id 8 
     name rtibia
     direction -0.34202 -0.939693 0   
     length 7.89523   
     axis 0 0 -20   XYZ
    dof rx
    limits (-10.0 170.0)
 end
 begin
     id 9 
     name rfoot
     direction -0.0860444 -0.236405 0.967837   
     length 2.29534  
     axis -90 -7.62852e-016 -20   XYZ
    dof rx rz
    limits (-45.0 90.0)
           (-20.0 70.0)
  end
  begin
     id 10 
     name rtoes
     direction -1.53608e-011 -4.21861e-011 1   
     length 1.14915   
     axis -90 -7.62852e-016 -20   XYZ
    dof rx
    limits (-90.0 20.0)
  end
  begin
     id 11 
     name lowerback
     direction -0.00734074 0.997215 -0.0742143   
     length 2.13469   
     axis 0 0 0   XYZ
    dof rx ry rz
    limits (-20.0 45.0)
           (-30.0 30.0)
           (-30.0 30.0)
  end
  begin
     id 12 
     name upperback
     direction 0.0285728 0.99958 -0.00488656   
     length 2.13416   
     axis 0 0 0   XYZ
    dof rx ry rz
    limits (-20.0 45.0)
           (-30.0 30.0)
           (-30.0 30.0)
  end
  begin
     id 13 
     name thorax
     direction 0.0316844 0.999056 0.0297249   
     length 2.14463   
     axis 0 0 0   XYZ
    dof rx ry rz
    limits (-20.0 45.0)
           (-30.0 30.0)
           (-30.0 30.0)
  end
  begin
     id 14 
     name lowerneck
     direction -0.0281545 0.996802 0.0747864   
     length 1.79004   
     axis 0 0 0   XYZ
    dof rx ry rz
    limits (-20.0 45.0)
           (-30.0 30.0)
           (-30.0 30.0)
  end
  begin
     id 15 
     name upperneck
     direction -0.00100185 0.982732 -0.185031   
     length 1.79988   
     axis 0 0 0   XYZ
    dof rx ry rz
    limits (-20.0 45.0)
           (-30.0 30.0)
           (-30.0 30.0)
  end
  begin
     id 16
     name head
     direction 0.00403747 0.997539 -0.0700022  
     length 1.81696  
     axis 0 0 0   XYZ
    dof rx ry rz
    limits (-20.0 45.0)
           (-30.0 30.0)
           (-30.0 30.0)
  end
  begin
     id 17 
     name lclavicle
     direction 0.959882 0.242905 -0.140082  
     length 3.87755  
     axis 0 0 0   XYZ
    dof ry rz
    limits (-20.0 10.0)
           (0.0 20.0)
  end
  begin
     id 18 
     name lhumerus
     direction 1 -4.4895e-011 3.76166e-027   
     length 5.14601   
     axis 180 -30 -90   XYZ
    dof rx ry rz
    limits (-60.0 90.0)
           (-90.0 90.0)
           (-90.0 90.0)
  end
  begin
     id 19
     name lradius
     direction 1 -4.48966e-011 -3.24039e-027   
     length 3.64452   
     axis 180 -30 -90   XYZ
    dof rx
    limits (-10.0 170.0)
  end
  begin
     id 20
     name lwrist
     direction 1 -4.48999e-011 2.57119e-027   
     length 1.82226   
     axis -1.61769e-015 90 90   XYZ
    dof ry
    limits (-180.0 0.0)
 end
  begin
     id 21 
     name lhand
     direction 1 -4.48961e-011 5.13984e-027   
     length 0.56228   
     axis -3.27988e-015 90 90   XYZ
    dof rx rz
    limits (-90.0 90.0)
           (-45.0 45.0)
  end
  begin
     id 22 
     name lfingers
     direction 1 -4.48991e-011 1.02836e-026   
     length 0.453325   
     axis -6.5598e-015 90 90   XYZ
    dof rx
    limits (0.0 90.0)
  end
  begin
     id 23
     name lthumb
     direction 0.707107 -6.34956e-011 0.707107   
     length 0.650886   
     axis -90 45 2.19363e-014   XYZ
    dof rx rz
    limits (-45.0 45.0)
           (-45.0 45.0)
  end
  begin
     id 24 
     name rclavicle
     direction -0.929201 0.345171 -0.132073   
     length 3.55416  
     axis 0 0 0   XYZ 
    dof ry rz
    limits (-10.0 20.0)
           (-20.0 0.0)
  end
  begin
     id 25 
     name rhumerus
     direction -1 -4.48979e-011 4.53734e-027  
     length 5.33913   
     axis 180 30 90   XYZ
    dof rx ry rz
    limits (-90.0 60.0)
           (-90.0 90.0)
           (-90.0 90.0)
  end
  begin
     id 26 
     name rradius
     direction -1 -4.4896e-011 -2.24007e-027   
     length 3.56478   
     axis 180 30 90   XYZ
    dof rx
    limits (-10.0 170.0)
  end
  begin
     id 27 
     name rwrist
     direction -1 -4.48923e-011 2.56866e-027   
     length 1.78239   
     axis -1.61769e-015 -90 -90   XYZ
    dof ry
    limits (-180.0 0.0)
  end
  begin
     id 28
     name rhand
     direction -1 -4.48914e-011 5.13667e-027   
     length 0.857474   
     axis -3.27988e-015 -90 -90   XYZ
    dof rx rz
    limits (-90.0 90.0)
           (-45.0 45.0)
  end
  begin
     id 29
     name rfingers
     direction -1 -4.49112e-011 1.02998e-026   
     length 0.691318   
     axis -6.5598e-015 -90 -90   XYZ
    dof rx
    limits (0.0 90.0)
  end
  begin
     id 30
     name rthumb
     direction -0.707107 -6.34979e-011 0.707107   
     length 0.992598   
     axis -90 -45 -2.19363e-014   XYZ
    dof rx rz
    limits (-45.0 45.0)
           (-45.0 45.0)
  end
:hierarchy
  begin
    root lhipjoint rhipjoint lowerback
    lhipjoint lfemur
    lfemur ltibia
    ltibia lfoot
    lfoot ltoes
    rhipjoint rfemur
    rfemur rtibia
    rtibia rfoot
    rfoot rtoes
    lowerback upperback
    upperback thorax
    thorax lowerneck lclavicle rclavicle
    lowerneck upperneck
    upperneck head
    lclavicle lhumerus
    lhumerus lradius
    lradius lwrist
    lwrist lhand lthumb
    lhand lfingers
    rclavicle rhumerus
    rhumerus rradius
    rradius rwrist
    rwrist rhand rthumb
    rhand rfingers
  end

#!OML:ASF F:\VICON\USERDATA\INSTALL\Justin4\Justin4.ASF
:FULLY-SPECIFIED
:DEGREES
174
root 1.68812 16.8302 9.41203 -19.2984 -96.6928 17.8255
lowerback 9.2229 5.33439 -11.3734
upperback 5.6097 5.96646 12.5476
thorax -1.68762 2.61807 20.4352
lowerneck -11.2642 1.22961 -19.185
upperneck 14.3745 5.48278 -5.92584
head 6.0895 0.905679 1.5301
rclavicle -8.0309e-014 -8.26944e-014
rhumerus -29.8939 23.9535 -76.7163
rradius 127.781
rwrist 10.1762
rhand -18.9559 21.7881
rfingers 7.12502
rthumb 7.3477 -8.06427
lclavicle -8.0309e-014 -8.26944e-014
lhumerus 20.4353 -7.50953 104.127
lradius 126.575
lwrist 5.78834
lhand -12.6081 7.93558
lfingers 7.12502
lthumb 13.471 37.4799
rfemur -7.92334 -2.02202 14.5731
rtibia 54.0526
rfoot -19.2498 -10.1442
rtoes -11.8508
lfemur -25.9121 5.59847 -1.18712
ltibia 50.0565
lfoot -2.3345 -11.9777
ltoes -34.5251
175
root 1.60265 16.7891 9.45423 -25.9206 -95.47 24.4282
lowerback 9.07315 5.54416 -11.2387
upperback 5.22184 6.34512 12.0904
thorax -2.12899 2.91535 19.6358
lowerneck -10.7171 0.836232 -17.5166
upperneck 14.545 4.63511 -6.14147
head 6.12325 0.586026 1.15685
rclavicle -7.15625e-015 1.59028e-014
rhumerus -31.9809 23.2573 -79.4856
rradius 127.881
rwrist 12.2884
rhand -19.9167 21.8144
rfingers 7.12502
rthumb 6.42025 -8.06824
lclavicle -7.15625e-015 1.59028e-014
lhumerus 20.8025 -8.46716 103.586
lradius 126.723
lwrist 8.52123
lhand -10.6039 8.31961
lfingers 7.12502
lthumb 15.402 37.7259
rfemur -6.57491 -2.30539 14.9439
rtibia 52.8617
rfoot -21.2915 -9.3167
rtoes -3.06249
lfemur -26.1754 4.83316 -1.44356
ltibia 50.5541
lfoot -4.2 -11.7214
ltoes -36.7316
176
root 1.52058 16.7485 9.5103 -35.3735 -94.3502 33.8238
lowerback 9.40069 3.66307 -10.527
upperback 4.9618 3.74687 12.434
thorax -1.49055 1.49003 20.0989
lowerneck -11.2466 1.98747 -22.468
upperneck 14.0901 6.71423 -4.14758
head 5.77361 1.49166 2.63474
rclavicle -2.54444e-014 -9.85972e-014
rhumerus -32.4598 29.4935 -80.6958
rradius 128.265
rwrist 13.3259
rhand -20.97 21.409
rfingers 7.12502
rthumb 5.40334 -8.5021
lclavicle -2.54444e-014 -9.85972e-014
lhumerus 21.1053 -3.06093 102.699
lradius 127.264
lwrist 9.09714
lhand -10.0528 8.28349
lfingers 7.12502
lthumb 15.9328 37.6481
rfemur -5.4956 -2.49304 15.2578
rtibia 52.1403
rfoot -21.8656 -10.5458
rtoes -1.98539
lfemur -26.3256 3.77787 -1.60915
ltibia 50.8566
lfoot -5.61088 -11.7742
ltoes -34.9296
177
root 1.43935 16.7227 9.56492 -48.4499 -93.5941 47.0741
lowerback 9.20057 4.05062 -9.5085
upperback 5.27968 4.37456 11.7983
thorax -1.18283 1.79607 18.4447
lowerneck -13.9349 0.911773 -21.4908
upperneck 15.3042 5.97753 -3.67689
head 6.6919 1.0801 2.67272
rclavicle 3.97569e-015 1.90833e-014
rhumerus -31.9308 28.2513 -80.1991
rradius 129.725
rwrist 13.2355
rhand -21.8687 20.7492
rfingers 7.12502
rthumb 4.53555 -9.1822
lclavicle 3.97569e-015 1.90833e-014
lhumerus 22.8471 -4.69949 101.627
lradius 127.156
lwrist 10.5727
lhand -9.29587 8.41581
lfingers 7.12502
lthumb 16.6616 37.7207
rfemur -4.9555 -2.85375 15.7218
rtibia 51.8976
rfoot -20.6003 -14.0746
rtoes -8.93104
lfemur -26.4459 2.68194 -1.49563
ltibia 50.6928
lfoot -6.50936 -12.0933
ltoes -32.6297
178
root 1.35658 16.6963 9.62256 -60.6956 -93.0787 59.6145
lowerback 8.807 3.88126 -10.08
upperback 4.68881 4.20264 11.5253
thorax -1.55603 1.80081 18.5053
lowerneck -13.0661 1.28311 -19.9061
upperneck 15.4563 6.07079 -4.37047
head 6.63819 1.15963 2.22328
rclavicle 2.38542e-015 4.77083e-014
rhumerus -33.5465 29.1993 -80.3015
rradius 131.926
rwrist 11.8316
rhand -21.7548 20.0929
rfingers 7.12502
rthumb 4.64557 -9.83614
lclavicle 2.38542e-015 4.77083e-014
lhumerus 22.0433 -4.45171 100.761
lradius 127.508
lwrist 11.5059
lhand -8.29673 8.31097
lfingers 7.12502
lthumb 17.6233 37.5323
rfemur -4.88707 -3.57101 15.873
rtibia 52.1354
rfoot -17.1845 -17.6984
rtoes -21.2153
lfemur -26.3105 1.50336 -1.57371
ltibia 50.1073
lfoot -7.61854 -12.2807
ltoes -31.9826
179
root 1.26419 16.7206 9.68902 -80.1828 -92.4716 79.2544
lowerback 8.51151 4.20325 -10.3328
upperback 4.20541 4.7121 11.2602
thorax -2.11259 2.17105 18.2428
lowerneck -11.9901 0.897757 -19.2708
upperneck 15.6489 5.20705 -4.47939
head 6.59295 0.781932 2.01686
rclavicle -2.66371e-014 -6.04305e-014
rhumerus -34.9977 29.1495 -84.0395
rradius 131.302
rwrist 14.2098
rhand -21.8501 20.113
rfingers 7.12502
rthumb 4.5535 -9.81803
lclavicle -2.66371e-014 -6.04305e-014
lhumerus 21.3554 -5.82656 101.136
lradius 127.619
lwrist 11.9837
lhand -6.73854 8.23812
lfingers 7.12502
lthumb 19.1223 37.3181
rfemur -4.98696 -3.05996 15.4448
rtibia 52.8542
rfoot -18.5824 -15.1722
rtoes -12.4464
lfemur -25.6324 -0.49897 -2.07705
ltibia 48.9416
lfoot -8.66555 -12.1399
ltoes -30.0429
